<?xml version="1.0" encoding="UTF-8" standalone="no"?>
<svg
   xmlns:images_actives="http://www.crdp.ac_versailles.fr/2011/images_actives"
   xmlns:dc="http://purl.org/dc/elements/1.1/"
   xmlns:cc="http://creativecommons.org/ns#"
   xmlns:rdf="http://www.w3.org/1999/02/22-rdf-syntax-ns#"
   xmlns:svg="http://www.w3.org/2000/svg"
   xmlns="http://www.w3.org/2000/svg"
   xmlns:xlink="http://www.w3.org/1999/xlink"
   xmlns:sodipodi="http://sodipodi.sourceforge.net/DTD/sodipodi-0.dtd"
   xmlns:inkscape="http://www.inkscape.org/namespaces/inkscape"
   width="284px"
   x="0px"
   version="1.1"
   y="0px"
   height="1024px"
   id="image_active"
   xml:space="preserve"
   inkscape:version="0.48.3.1 r9886"
   sodipodi:docname="basilique.svg"><sodipodi:namedview
   pagecolor="#ffffff"
   bordercolor="#666666"
   borderopacity="1"
   objecttolerance="10"
   gridtolerance="10"
   guidetolerance="10"
   inkscape:pageopacity="0"
   inkscape:pageshadow="2"
   inkscape:window-width="1904"
   inkscape:window-height="901"
   id="namedview298"
   showgrid="false"
   inkscape:zoom="0.23046875"
   inkscape:cx="2735.7844"
   inkscape:cy="-13.22189"
   inkscape:window-x="0"
   inkscape:window-y="27"
   inkscape:window-maximized="1"
   inkscape:current-layer="image_active" />
 
 <g
   id="g3377"><path
     style="fill:#ff0000"
     inkscape:connector-curvature="0"
     id="path17"
     d="m 0,586.584 c 0.029,0.044 0.056,0.088 0.085,0.132 L -3,210.101 c 0,0 3,172.494 3,376.483 z" /><path
     id="polygon19"
     d="m 1063.833,1602.159 -0.334,12.667 -2.666,-6.667 0.333,4.333 -2.667,9.667 5.667,396.002 1.333,1.333 1.334,11.667 7.666,-5.003 2.667,-6.334 3.333,-353.998 -5,-43.667 -6,-14.667 z"
     style="fill:#ff0000" /><path
     id="polygon21"
     d="m 882.835,1509.83 -0.333,8.668 -2.333,1.666 5,523.336 2,1.666 1,19.334 16.865,-0.082 0.343,-8.242 14.594,-1.201 1.545,-18.716 4.653,-463.429 -3.667,-3.666 1,-10.334 3.333,-0.666 -27.666,-42.666 -2.667,-20.668 22.667,-0.332 -2,-4 -18.667,-24.668 -7.667,16 -12.333,25.668 z"
     style="fill:#ff0000" /><path
     id="polygon23"
     d="m 790.5,1327.5 -19,32.334 -0.334,8.332 12.667,6 -4.333,16 -7.667,7.666 -8,21.668 -13.666,29 4.333,4.666 -3.333,14.666 2.333,592.334 3.667,17 2.333,0.666 0.667,9.334 10.666,0 4.334,5.334 6.666,0.332 1.667,-19.998 12,-3.666 2.666,-2.666 6.667,-4.334 5.667,-542.334 -5.667,-6 0.667,-9.334 6,-3.666 -21,-39.334 -9,-21.334 -4.334,-15 33.667,0.334 -27.333,-32 0.666,-7.334 6.667,-3 z"
     style="fill:#ff0000" /><path
     id="polygon25"
     d="m 988.5,1573.161 -4,1.667 5,467 14.333,-1 3,-8 4.334,-414.667 -6.334,-9 -0.333,-16.333 z"
     style="fill:#ff0000" /><path
     style="fill:#ff0000"
     inkscape:connector-curvature="0"
     id="path30"
     d="m 102.587,2272.5 c 0,0 -1.836,-36.244 -5.017,-99.035 0.517,-7.463 53.015,-4.463 50.015,-11.963 -0.366,-7.235 13.914,-2.781 13.499,-10.498 1.446,-4.341 10.5,-451.478 13.499,-940.453 -8.517,-26.746 -36.325,-64.024 -34.646,-86.192 0.49,-6.492 -25.388,0.31 -27.93,-14.022 -0.523,-2.793 -1.558,-17.262 -1.198,-42.194 0.399,-1.294 45.669,2.639 45.774,1.418 -34.498,-22.499 -57.092,-59.183 -59.588,-78.056 -0.581,-4.393 22.694,0.134 22.09,-4.44 -5.999,-85.477 5.402,-209.933 -119,-400.348 L 0.508,2294.472 102.587,2272.5 z" /><path
     style="opacity:0.25;fill:#ff0000"
     inkscape:connector-curvature="0"
     id="path32"
     d="m 0.511,2308.323 16.366,0.403 c 0,0 0.57,-0.133 1.665,-0.389 l -18.031,-0.014 z" /><path
     style="fill:#ff0000"
     inkscape:connector-curvature="0"
     id="path34"
     d="m 415.504,2122.968 c -0.001,0.01 30.325,-2.905 33.229,-3.551 0.3,-2.121 0.604,-4.493 0.916,-7.106 0.169,-1.424 14.073,-1.975 14.245,-3.539 11.939,-93.887 6.454,-427.791 13.229,-741.685 0.031,-6.685 -3.54,-8.515 -3.549,-15.163 -0.005,-3.88 3.891,-2.908 3.871,-6.775 -0.073,-13.964 -13.872,-22.904 -17.743,-36.776 -0.078,-4.748 -5.484,-12.259 -10.323,-22.583 -7.421,-11.614 -18.119,-31.83 -18.39,-42.585 -0.106,-4.207 0,-4.839 3.549,-9.035 0.323,-1.613 27.422,3.227 27.096,1.923 -0.101,-3.015 -0.208,-6.021 -0.317,-9.02 0.644,-3.549 -38.069,-12.582 -42.264,-48.394 0.323,-2.258 14.519,0.646 13.872,-1.29 4.518,-130.979 -47.745,-293.255 -65.812,-296.479 -2.581,-0.965 -21.292,48.39 -14.517,147.756 8.711,1.937 10.969,7.742 10.969,7.742 0,39.358 -21.292,53.554 -32.584,61.619 -0.645,0.967 -1.936,5.806 -0.322,8.064 25.164,3.549 27.744,10.969 27.744,10.969 -0.935,-8.207 4.84,13.551 0,31.938 -0.452,-3.55 -1.937,5.483 -15.809,8.064 -7.09,2.256 -19.652,27.369 -46.369,69.869 0.695,0.049 5.639,5.138 6.028,5.066 -0.188,1.153 -2.378,14.427 -2.565,14.427 -8.065,-0.323 0.646,867.832 0.646,867.832 -5.064,-0.352 5.808,1.29 5.808,1.29 l 1.612,24.196 c 0.322,1.29 6.66,1.699 6.13,1.936 -1.612,1.29 -0.861,14.733 -1.291,15.162 -4.517,2.26 9.033,1.291 7.421,3.872 -4.492,4.003 50.327,2.903 50.327,2.903 -0.327,5.069 0.149,49.892 0.149,49.892 l 45.014,-9.888 c -0.132,0.663 0,-80.651 0,-80.651 z" /><path
     style="fill:#ff0000"
     inkscape:connector-curvature="0"
     id="path36"
     d="m 667.832,1442.496 c -0.615,-22.901 -20.589,-36.852 -21.333,-59.001 -5.667,-6.33 -10.38,-24.419 -10.667,-32.666 -0.128,-3.678 27.137,2.979 27,-0.667 -2.666,-14.332 -30.666,-13.666 -31.333,-57.001 -0.082,-1.782 10.75,0.107 10.667,-1.667 -3.74,-79.479 -4,-131.999 -28,-192 -0.822,-11.836 -7.667,38.334 -7,99.001 8.532,3.268 11.66,7.584 12.67,9.892 0.039,4.831 1.278,6.831 -2.004,10.441 -10,9.333 -11,13.334 -32,29 9,4.667 8.667,5.001 7,10 12.349,1.921 17.464,4.067 18.331,4.395 -0.661,10.65 -0.012,22.293 -7.997,32.939 -3.334,0.667 -4.667,9.667 -16.334,23.333 -1.333,6.667 5.334,7.334 -12,19 -1.333,3.667 -3,14.334 -3,14.334 3.667,4.333 5.114,12.202 3.334,10.666 1.333,4.334 -2.666,5.697 -3,5.667 -2.697,-2.591 -0.829,608.062 -2.001,607.667 0,0 -1,96.334 4.334,107 -1.334,1 3.333,21.334 2,23.667 13.666,4.333 15.097,8.417 15,9 1.666,1.333 29.868,0.564 28.354,0.282 -0.691,0.461 0.494,28.906 0.247,40.888 0.37,0 1.883,-0.871 1.883,-0.871 0.465,-16.579 1.712,-53.225 1.517,-55.299 -0.046,-0.484 15,-3.667 19.333,-6.667 -3,-3.666 14.333,-6 15,-7.666 -0.701,-1.32 5.122,-16.851 6,-42.667 3.464,-101.846 5.333,-367.334 3.999,-601 z" /><path
     id="line41"
     d="m 2667.8,2124.1489 -0.101,-11.646"
     style="fill:#ff0000" /><path
     style="fill:#ff0000"
     inkscape:connector-curvature="0"
     id="path43"
     d="m 2694.32,2077.506 0.914,-5.021 c 0,0 8.688,-0.465 9.602,-1.83 0.914,-1.364 1.83,-21.952 1.83,-21.952 l 10.973,-595.77 -3.2,-6.854 0.914,-14.632 -11.888,-18.746 -2.286,-11.432 -7.772,-17.375 -10.06,-2.743 -1.371,-21.945 11.888,-4.115 c 0,0 2.096,1.498 -3.199,-5.029 -19.662,-24.233 -14.176,-47.552 -14.176,-47.552 0,0 6.858,-4.115 7.316,-5.944 0.458,-1.828 0.42,-48.803 -2.286,-47.094 -8.688,5.486 -10.06,124.365 -10.06,124.365 l 6.857,1.372 -5.029,24.688 -10.059,20.575 11.431,1.369 c 0,0 0.458,18.749 -2.744,21.947 -3.202,3.197 -8.687,5.028 -8.687,5.028 0,0 3.925,18.616 -5.944,26.521 -2.287,1.831 1.51,9.812 -10.06,23.317 -2.743,3.203 0.457,14.632 0.457,14.632 l -3.2,4.114 c 0,0 2.743,525.812 2.743,522.619 0,-2.522 2.568,6.924 3.42,9.426 -0.221,1.734 -0.221,9.32 -0.22,9.32 l 11.431,2.286 v 4.572 l 5.486,5.485 0.357,41.394 2.168,0.432 0.221,-34.965 24.233,-0.463 z" /><path
     style="fill:#ff0000"
     inkscape:connector-curvature="0"
     id="path45"
     d="m 3345.938,956.564 c 6.793,1.688 20.005,0.927 20.005,0.927 0,0 -5.26,42.44 -31.958,78.031 -1.372,1.829 21.49,-1.371 26.062,-0.457 7.316,3.658 5.872,45.559 -23.317,58.525 -2.811,1.248 -4.116,17.83 -11.888,28.804 -4.028,5.688 -1.006,19.279 -2.534,21.439 -7.216,10.191 -11.501,11.13 -14.841,17.425 -4.696,8.848 -6.858,21.033 -6.858,21.033 l 0.457,23.774 -3.2,13.259 2.743,858.67 5.029,3.658 -0.914,29.721 3.657,4.114 0.457,10.975 15.545,7.314 0.459,6.401 39.777,3.656 0.428,107.478 142.921,29.339 V 545.036 c -108.8,86.083 -163.797,257.852 -162.03,411.528 z" /><path
     style="fill:#ff0000"
     inkscape:connector-curvature="0"
     id="path47"
     d="m 2871.272,2099.008 0.915,-5.486 18.746,-1.372 -1.372,-6.4 4.114,-1.371 -0.457,-18.747 3.2,-1.371 3.201,-731.119 c 0,0 -27.892,-47.093 -32.006,-54.408 -4.114,-7.314 -16.003,-38.407 -13.718,-40.236 2.286,-1.828 20.575,-5.942 20.575,-5.942 0,0 -31.548,-25.147 -26.062,-58.982 0.558,-3.437 12.803,-6.401 14.174,-8.688 1.371,-2.287 -6.312,-87.212 -10.059,-81.845 -30.635,43.896 -29.721,201.181 -29.721,201.181 0,0 11.432,-2.743 11.432,0.458 0,41.617 -21.489,47.094 -14.632,49.836 11.071,4.426 15.088,4.114 15.088,4.114 0,0 1.372,22.405 0,28.349 -1.372,5.944 -10.535,3.89 -10.974,9.602 -0.914,11.89 -8.229,21.948 -8.229,21.947 0,0 1.371,6.403 0,9.146 -1.37,2.742 -16.003,21.946 -16.003,21.946 l -0.915,20.117 -2.743,2.286 3.658,598.523 c 0,0 1.828,21.946 1.829,21.946 l 11.431,3.2 -0.457,4.115 26.062,3.642 -0.791,62.867 3.617,0.72 1.289,-48.483 28.808,0.455 z" /><path
     id="polygon49"
     d="m 2277.331,1670.129 -5.029,14.631 3.657,3.658 -3.657,4.114 0,267.479 z"
     style="fill:#ff0000" /><path
     style="fill:#ff0000"
     inkscape:connector-curvature="0"
     id="path51"
     d="m 3143.319,2132.406 -0.914,-5.03 17.832,-4.114 3.2,-20.117 c 0,0 0.915,-25.147 0.915,-25.147 l 8.687,-2.286 5.944,-851.374 -3.201,-7.771 2.286,-40.693 -23.318,-5.485 c 0,0 -5.029,-18.289 -5.029,-18.289 -1.371,-3.201 -7.772,-10.974 -10.517,-13.718 -2.744,-2.743 -24.234,-4.113 -26.521,-5.943 -5.028,-4.115 -6.399,-42.979 -5.028,-44.809 1.371,-1.83 41.606,-13.26 35.207,-11.889 -34.292,-23.773 -35.207,-69.955 -35.207,-69.955 0,0 9.145,-3.657 12.346,-7.771 -0.458,-59.439 -11.89,-126.195 -18.747,-126.652 -32.92,11.432 -68.584,180.146 -68.584,276.165 0,0.915 15.089,2.286 15.089,2.286 0,0 2.286,29.264 -22.403,60.354 3.199,4.113 16.918,0.456 17.375,5.943 0.457,5.488 -1.371,26.976 -6.401,32.463 -5.03,5.488 -12.345,6.401 -12.345,6.401 0,0 3.201,15.087 0,20.117 -3.201,5.029 -10.518,13.258 -10.518,13.258 0,0 2.286,12.346 -0.457,16.918 -2.742,4.572 -19.203,21.489 -19.203,21.489 l 9.603,739.811 2.743,1.829 -0.457,17.831 5.486,1.829 0.914,7.773 16.918,3.656 v 7.315 l 31.549,4.572 -0.417,79.246 44.92,8.941 1.676,-66.241 36.577,-0.913 z" /><path
     id="polygon53"
     d="m 2550.751,1538.9 -10.974,20.118 1.829,7.314 -3.657,7.773 -1.371,454.484 1.829,16.46 7.772,2.285 2.285,5.03 20.118,0 -0.457,-13.717 2.286,-2.286 4.573,-521.237 -2.743,-1.372 0.457,-12.803 -3.658,-8.228 -7.316,-5.944 -4.114,5.487 4.571,5.486 0.916,5.029 -5.03,16.46 -9.145,16.46 z"
     style="fill:#ff0000" /><path
     id="polygon55"
     d="m 2452.449,2035.456 7.314,0.457 0.916,3.659 5.943,-0.458 2.286,-10.059 3.201,-16.917 6.4,-435.737 -0.456,-5.947 2.287,-5.486 -5.945,-18.288 -4.113,12.347 -2.286,10.059 -8.687,13.26 -6.86,14.175 2.286,9.144 -4.115,5.03 -0.457,407.843 z"
     style="fill:#ff0000" /><path
     id="polygon57"
     d="m 2324.883,1662.815 -3.201,4.572 2.744,325.089 1.829,19.66 6.401,-373.098 -5.487,8.688 -4.573,10.058 z"
     style="fill:#ff0000" /><path
     id="polygon59"
     d="m 2391.636,2024.482 6.403,-415.617 -3.201,-4.115 -5.944,12.801 -10.516,6.4 -0.457,6.402 3.658,0 0.457,6.401 -3.201,1.828 1.829,371.726 2.743,14.174 z"
     style="fill:#ff0000" /></g>
 <image
   sodipodi:absref="/home/pascal/Documents/IA2/fixtures/rond-icone-2.png"
   xlink:href="rond-icone-2.png"
   transform="matrix(1.8047 0 0 1.8047 -0.0017 -7.324219e-04)"
   id="detail9"
   enable-background="new    "
   images_actives:zoomable="false"
   images_actives:puce="true"
   height="128"
   overflow="visible"
   display="none"
   width="128">
  <title
   id="title62">La basilique, du bâtiment romain au lieu de culte chrétien</title>
  <desc
   id="desc64">
	À l’origine, la basilique est un édifice civil romain, couvert, à trois nefs, servant au commerce et à rendre la justice. Ce sont d’immenses bâtiments, hauts et larges, dont l’archéologie conserve des témoignages telle la basilique de Maxence et Constantin sur le Forum républicain à Rome. Les chrétiens récupèrent l’architecture de ce bâtiment pour ses qualités acoustiques et pour sa taille qui permet d’accueillir les fidèles dans la nef principale séparée des bas-côtés par des colonnades. La basilique Saint-Apollinaire est pourvue de deux niveaux de fenêtres qui apportent de la clarté. Construite en briques rouges, elle paraît très austère de l’extérieur mais elle est richement décorée à l’intérieur.
	</desc>
 </image>
 <g
   display="none"
   images_actives:zoomable="true"
   id="detail6">
  <title
   id="title67">Un saint local</title>
  <desc
   id="desc69">
		Apollinaire, auréolé et identifié par une inscription en latin de part et d’autre de sa tête (“Sanctus Apolenaris”), est un homme ayant vécu entre la fin du Ier et le début du IIe siècle, originaire d’Antioche dans la province romaine de Syrie. Disciple de Pierre qui l’envoie à Ravenne, il devient le premier évêque de la ville et, à la suite de miracles, il rassemble autour de lui une communauté chrétienne. Apollinaire est persécuté, exilé même à plusieurs reprises et finalement martyrisé. La basilique, qui lui est dédiée, pratique courante chez les chrétiens, est bâtie sur son tombeau mais ses ossements vont être plus tard transférés dans l’église Saint-Apollinaire-le-Neuf, afin de les protéger au cœur de la ville et à côté palais.
		</desc>
  <g
   display="inline"
   id="_detail6_1" />
  <g
   display="inline"
   id="_detail6_2" />
  <g
   display="inline"
   id="_detail6_3" />
  <g
   display="inline"
   id="_detail6_4" />
  <g
   display="inline"
   id="_detail6_5" />
  <g
   display="inline"
   id="_detail6_6" />
  <g
   display="inline"
   id="_detail6_7" />
  <g
   display="inline"
   id="_detail6_8" />
  <g
   display="inline"
   id="_detail6_9" />
  <g
   display="inline"
   id="_detail6_10" />
  <g
   display="inline"
   id="_detail6_11" />
  <g
   display="inline"
   id="_detail6_12" />
  <g
   display="inline"
   id="_detail6_13" />
  <g
   display="inline"
   id="_detail6_14" />
  <g
   display="inline"
   id="_detail6_15" />
  <g
   display="inline"
   id="_detail6_16" />
  <g
   display="inline"
   id="_detail6_17" />
  <g
   display="inline"
   id="_detail6_18">
   <g
   id="g89">
    <g
   transform="matrix(1,0,0,1,0,0)"
   id="g91" />
   </g>
  </g>
  <g
   display="inline"
   id="_detail6_19">
   <g
   id="g94">
    <g
   transform="matrix(1,0,0,1,0,0)"
   id="g96" />
   </g>
  </g>
  <g
   display="inline"
   id="_detail6_20">
   <g
   id="g99">
    <g
   transform="matrix(1,0,0,1,0,0)"
   id="g101" />
   </g>
  </g>
  <g
   display="inline"
   id="_detail6_21">
   <g
   id="g104">
    <g
   transform="matrix(1,0,0,1,0,0)"
   id="g106">
     <path
   fill="#FF0000"
   vector-effect="non-scaling-stroke"
   d="M1803.29,1411.98c0,60.15-35.22,108.92-78.66,108.92 c-43.45,0-78.67-48.77-78.67-108.92c0-60.16,35.22-108.93,78.67-108.93C1768.07,1303.05,1803.29,1351.82,1803.29,1411.98 z"
   id="path108" />
    </g>
   </g>
  </g>
 </g>
 <g
   display="none"
   images_actives:zoomable="true"
   id="detail0">
  <title
   id="title111">La nef</title>
  <desc
   id="desc113">Dans le vocabulaire religieux, la nef correspond à l’espace qui s’étend du portail au transept d’une église ; or, dans la basilique Saint-Apollinaire, il n’y a pas de transept : la nef s’arrête quelques mètres avant l’autel. Cet espace accueille les fidèles qui s’y installent pour écouter les offices ou pour prier. Elle était recouverte de mosaïques au sol qui ont disparu. Le plafond a également perdu ses caissons d’origine.</desc>
  <g
   display="inline"
   id="_detail0_1" />
  <g
   display="inline"
   id="_detail0_2" />
  <g
   display="inline"
   id="_detail0_3" />
  <g
   display="inline"
   id="_detail0_5" />
  <g
   display="inline"
   id="_detail0_6" />
  <g
   display="inline"
   id="_detail0_8" />
  <g
   display="inline"
   id="_detail0_9" />
  <g
   display="inline"
   id="_detail0_10" />
  <g
   display="inline"
   id="_detail0_12" />
  <g
   display="inline"
   id="_detail0_13" />
  <g
   display="inline"
   id="_detail0_14" />
  <g
   display="inline"
   id="_detail0_15" />
  <g
   display="inline"
   id="_detail0_17" />
  <g
   display="inline"
   id="_detail0_18" />
  <g
   display="inline"
   id="_detail0_19" />
  <g
   display="inline"
   id="_detail0_20" />
  <g
   display="inline"
   id="_detail0_21" />
  <g
   display="inline"
   id="_detail0_23" />
  <g
   display="inline"
   id="_detail0_24" />
  <g
   display="inline"
   id="_detail0_25" />
  <g
   display="inline"
   id="_detail0_26" />
  <g
   display="inline"
   id="_detail0_27" />
  <g
   display="inline"
   id="_detail0_29" />
  <g
   display="inline"
   id="_detail0_30" />
  <g
   display="inline"
   id="_detail0_31" />
  <g
   display="inline"
   id="_detail0_32" />
  <g
   display="inline"
   id="_detail0_33" />
  <g
   display="inline"
   id="_detail0_34">
   <g
   id="g143">
    <g
   transform="matrix(1,0,0,1,0,0)"
   id="g145">
     <path
   fill="#FF0000"
   vector-effect="non-scaling-stroke"
   d="M941.16,1.349L2577.5,0.5l-6,52l-11.895,25.583L2521.5,79.5
					l0.583,79.273l-8.866,19.067L2479.5,179.5l-0.621,72.188l-7.357,15.819L2437.5,271.5l1.008,67.006
					c-0.001,0-7.158,15.391-7.158,15.391l-28.85,3.603l-2.48,63.771l-8.097,17.413L2362.5,440.5l1.68,57.85l-7.158,15.396
					L2332.5,517.5l-2.275,53.867l-5.84,12.562L2299.5,588.5c0,0-0.965,51.016-0.964,51.017l-5.653,12.157L2271.5,652.5l-0.506,46.24
					l-5.09,10.942L2244.5,711.5l0.086,44.031l-3.77,8.105l-19.316,1.857l-1,39l-2,4.567l-16,2.433l-3,41h-21l-9,10l-888,10l-1-14
					h-19l-1-42l-21.751-4.088l0.751-43.912l-17-2l-4-50l-17.467-0.188l-4.533-12.812l-3-45l-18.344-1.237l-3.656-9.763v-52
					l-23.808-1.066c0,0-3.769-9.706-3.768-9.706l-0.43-62.228l-22.923,1.969l-5.501-14.193l-0.571-61.77l-24.121-1.952
					l-7.109-18.352l-1.77-62.696l-23.862-3.438l-6.384-16.473l1.246-65.094l-26-1l-9-21v-72h-28l-10-18l-1-79l-29-1
					c0,0-10.729-20.366-10.729-20.367L941.16,1.349"
   id="path147" />
    </g>
   </g>
  </g>
  <g
   display="inline"
   id="_detail0_35" />
  <g
   display="inline"
   id="_detail0_36" />
  <g
   display="inline"
   id="_detail0_37" />
  <g
   display="inline"
   id="_detail0_38" />
  <g
   display="inline"
   id="_detail0_39" />
  <g
   display="inline"
   id="_detail0_40" />
  <g
   display="inline"
   id="_detail0_42" />
  <g
   display="inline"
   id="_detail0_43" />
  <g
   display="inline"
   id="_detail0_44" />
  <g
   display="inline"
   id="_detail0_45" />
  <g
   display="inline"
   id="_detail0_46" />
  <g
   display="inline"
   id="_detail0_47" />
  <g
   display="inline"
   id="_detail0_48" />
  <g
   display="inline"
   id="_detail0_49" />
  <g
   display="inline"
   id="_detail0_50">
   <g
   id="g164">
    <g
   transform="matrix(1,0,0,1,0,0)"
   id="g166">
     <path
   fill="#FF0000"
   vector-effect="non-scaling-stroke"
   d="M133.541,2309.733l1068.641-251.661h1090.174l1122.479,254.354 L133.541,2309.733 z"
   id="path168" />
    </g>
   </g>
  </g>
  <g
   display="inline"
   id="_detail0_51" />
  <g
   display="inline"
   id="_detail0_52" />
  <g
   display="inline"
   id="_detail0_53" />
  <g
   display="inline"
   id="_detail0_54" />
  <g
   display="inline"
   id="_detail0_55" />
  <g
   display="inline"
   id="_detail0_56" />
  <g
   display="inline"
   id="_detail0_57" />
  <g
   display="inline"
   id="_detail0_58" />
  <g
   display="inline"
   id="_detail0_59" />
 </g>
 <g
   display="none"
   images_actives:zoomable="true"
   id="detail3">
  <title
   id="title180">Des colonnes de marbre</title>
  <desc
   id="desc182">La basilique possède vingt-quatre colonnes de marbre de couleur rouge, veiné de gris de Proconèse. Réparties en deux groupes de douze, elles séparent la nef des bas-côtés. Elles joignent des arcs en plein-cintre qui prennent appui sur des chapiteaux décorés de feuilles d’acanthe. Les chapiteaux et les bases des colonnes sont byzantins. 
Si l’extérieur de la basilique paraît assez austère, les murs intérieurs étaient recouverts de marbre dont les plaques ont été récupérées et utilisées pour orner un autre édifice, le Tempio Malastestiano, en 1450.</desc>
  <g
   display="inline"
   id="_detail3_1" />
  <g
   display="inline"
   id="_detail3_2" />
  <g
   display="inline"
   id="_detail3_3" />
  <g
   display="inline"
   id="_detail3_4" />
  <g
   display="inline"
   id="_detail3_5" />
  <g
   display="inline"
   id="_detail3_7" />
  <g
   display="inline"
   id="_detail3_8" />
  <g
   display="inline"
   id="_detail3_9" />
  <g
   display="inline"
   id="_detail3_10" />
  <g
   display="inline"
   id="_detail3_11" />
  <g
   display="inline"
   id="_detail3_12" />
  <g
   display="inline"
   id="_detail3_14" />
  <g
   display="inline"
   id="_detail3_13">
   <g
   id="g197">
    <path
   fill="#FF0000"
   d="M1279.245,1642.537l0.782-130.502L0,246.101c0,0,0,139.494,0,343.483
				c124.494,190.489,113.085,314.982,119.085,400.479c0.604,4.574-22.671,0.048-22.09,4.44c2.496,18.872,25.09,55.557,59.588,78.056
				c-0.104,1.221-45.375-2.712-45.773-1.418c-0.359,24.933,0.675,39.4,1.197,42.193c2.542,14.332,28.42,7.53,27.931,14.022
				c-1.68,22.168,26.13,59.446,34.646,86.192c-2.999,488.976-12.053,936.111-13.499,940.453c0.415,7.717-13.865,3.263-13.499,10.498
				c3,7.5-49.498,4.5-50.015,11.963c3.181,62.791,5.017,99.035,5.017,99.034c0,0,178.491,1.499,178.491,1.5
				c0,0,33.702-7.94,88.526-20.86c4.105-0.97,0.092-79.521,0.735-89.521c0,0-54.818,1.1-50.326-2.903
				c1.611-2.581-11.938-1.612-7.422-3.872c0.431-0.429-0.32-13.872,1.291-15.162c0.53-0.236-5.808-0.646-6.13-1.936l-1.611-24.196
				c0,0-10.872-1.642-5.809-1.29c0,0-8.711-868.155-0.646-867.832c0.188,0,2.377-13.273,2.564-14.427
				c-0.39,0.071-5.333-5.019-6.027-5.066c26.717-42.5,39.278-67.613,46.368-69.869c13.872-2.581,15.356-11.614,15.81-8.063
				c4.84-18.389-0.936-40.146,0-31.938c0,0-2.58-7.42-27.744-10.969c-1.613-2.259-0.322-7.098,0.322-8.063
				c11.292-8.065,32.584-22.262,32.584-61.619c0,0-2.258-5.807-10.97-7.742c-6.774-99.366,11.937-148.721,14.518-147.756
				c18.065,3.224,70.329,165.499,65.812,296.479c0.646,1.938-13.549-0.968-13.872,1.29c4.194,35.812,42.907,44.845,42.265,48.395
				c0.108,2.998,0.217,6.005,0.316,9.02c0.326,1.304-26.771-3.536-27.096-1.923c-3.549,4.196-3.655,4.828-3.549,9.035
				c0.271,10.755,10.969,30.971,18.39,42.585c4.839,10.324,10.245,17.835,10.323,22.583c3.871,13.872,17.67,22.812,17.743,36.776
				c0.02,3.866-3.876,2.896-3.871,6.774c0.009,6.648,3.58,8.479,3.549,15.163c-6.774,313.895-1.289,647.798-13.229,741.685
				c-0.172,1.564-14.075,2.115-14.244,3.539c-0.312,2.613-0.616,4.985-0.916,7.106c-2.904,0.646-33.23,3.556-33.229,3.551
				c0,0-0.132,81.314,0,80.653c0,0,142.595,4.839,145.734,4.355c19.679-4.64,37.315-8.291,57.927-13.147
				c0.866,0.55-1.301-78.688-0.333-79.333c0.018,0-25.667,1.333-27.333,0c0.097-0.583-1.334-4.667-15-9
				c1.333-2.333-3.334-22.667-2-23.667c-5.334-10.666-4.334-107-4.334-107c1.172,0.396-0.696-610.258,2.001-607.667
				c0.334,0.03,4.333-1.333,3-5.667c1.78,1.536,0.333-6.333-3.334-10.666c0,0,1.667-10.667,3-14.334
				c17.334-11.666,10.667-12.333,12-19c11.667-13.666,13-22.666,16.334-23.333c7.985-10.646,7.336-22.289,7.997-32.939
				c-0.867-0.326-5.982-2.474-18.331-4.395c1.667-4.999,2-5.333-7-10c21-15.666,22-19.667,32-29c3.282-3.61,2.043-5.61,2.004-10.441
				c-1.01-2.308-4.138-6.624-12.67-9.892c-0.667-60.667,6.178-110.837,7-99.001c24,60.001,24.26,112.521,28,192
				c0.083,1.774-10.749-0.115-10.667,1.667c0.667,43.335,28.667,42.669,31.333,57.001c0.137,3.646-27.128-3.011-27,0.667
				c0.287,8.247,5,26.336,10.667,32.666c0.744,22.149,20.718,36.1,21.333,59.001c1.334,233.666-0.535,499.153-4,601
				c-0.878,25.816-6.701,41.347-6,42.667c-0.667,1.666-18,4-15,7.666c-4.333,3-19.379,6.183-19.333,6.667
				c0.253,2.686-1.913,63.333-1.667,63.333c16.609-0.007,124.894,0.015,131.647-1.156c15.107-3.561,29.241-6.796,44.32-10.35
				c0.946,0.006,0-20.647,0-20.647c0.969-0.322,78.072,0.969,86.354,0.202c10.7-2.522,19.274-5.471,29.788-7.948
				c0.968-0.646,0.32-15.808,0.32-15.808c0.97,0,67.748,1.29,70.801-0.023c8.615-2.03,17.114-4.034,25.479-6.006
				c0.828-1.392,0.184-11.715,0.184-11.715c0.969-0.323,47.103,0,56.126-1.554c9.349-2.202,12.805-2.819,21.623-4.898
				c0.97-0.968,0.646-9.679,1.612-10.001c7.42,0,37.113,0.676,42.987-0.708c70.509-16.613,115.448-27.204,115.448-27.205
				l1.499-34.499l26.999-1.5l1.957-326.979l13.042-25.502L1279.245,1642.537z M810.5,1522.834l-5.667,542.334l-6.667,4.334
				l-2.666,2.666l-12,3.666l-1.667,19.998l-6.666-0.332l-4.334-5.334h-10.666l-0.667-9.334l-2.333-0.666l-3.667-17l-2.333-592.334
				l3.333-14.666l-4.333-4.666l13.666-29l8-21.668l7.667-7.666l4.333-16l-12.667-6l0.334-8.332l19-32.334l0.333,55.666l-6.667,3
				l-0.666,7.334l27.333,32l-33.667-0.334l4.334,15l9,21.334l21,39.334l-6,3.666l-0.667,9.334L810.5,1522.834z M926.169,1575.829
				l-4.652,463.43l-1.545,18.716l-14.595,1.201l-0.343,8.241l-16.865,0.082l-1-19.334l-2-1.666l-5-523.336l2.333-1.666l0.333-8.668
				l-4.333-2.332l12.333-25.668l7.667-16l18.667,24.668l2,4l-22.667,0.332l2.667,20.668l27.666,42.666l-3.333,0.666l-1,10.334
				L926.169,1575.829z M1006.833,2035.827l-3,8l-14.333,1l-5-467l4-1.667l16,19.667l0.333,16.333l6.334,9L1006.833,2035.827z
				 M1077.166,2022.823l-2.667,6.334l-7.666,5.003l-1.334-11.667l-1.333-1.333l-5.667-396.002l2.667-9.667l-0.333-4.333l2.666,6.667
				l0.334-12.667l5.666,5.333l6,14.667l5,43.667L1077.166,2022.823z"
   id="path199" />
   </g>
   <g
   id="g201">
    <path
   fill="#FF0000"
   d="M2176.944,1518.524l0.798,123.418l-12.803,7.315l1.372,22.402l11.897,10.802l4.562,312.452l16.722,42.098
				l10.255,19.629l46.637,2.286l14.175,1.828l30.175,0.926l0.914,8.229l5.489,1.359l16.461,1.829l48.461,0.47l0.008,10.049
				l19.201,4.572l55.776,0.467l0.005,11.878l26.062,5.944l67.207,0.01l-0.452,11.878l31.549,7.314l97.385,0.468l-0.458-53.039
				l-5.486-5.485v-4.572l-11.431-2.285c-0.001,0-0.001-7.586,0.22-9.32c-0.852-2.502-3.42-11.948-3.42-9.426
				c0,3.192-2.742-522.619-2.742-522.619l3.199-4.114c0,0-3.199-11.429-0.457-14.632c11.569-13.505,7.772-21.486,10.061-23.317
				c9.869-7.903,5.944-26.521,5.944-26.521s5.483-1.831,8.687-5.028c3.202-3.198,2.744-21.946,2.744-21.946l-11.431-1.369
				l10.059-20.575l5.029-24.688l-6.856-1.371c0,0,1.371-118.88,10.06-124.365c2.706-1.709,2.744,45.266,2.286,47.094
				c-0.458,1.829-7.316,5.944-7.316,5.944s-5.486,23.317,14.176,47.552c5.295,6.527,3.199,5.029,3.199,5.029l-11.888,4.114
				l1.371,21.945l10.06,2.743l7.772,17.375l2.286,11.432l11.888,18.746l-0.914,14.632l3.2,6.854l-10.973,595.77
				c0,0-0.916,20.588-1.83,21.952c-0.914,1.365-9.603,1.83-9.603,1.83l-0.914,5.021l-24.231,0.465l-0.453,71.774l44.809,6.399
				h122.994l0.914-72.697l-26.062-3.643l0.457-4.114l-11.431-3.2c-0.001,0-1.829-21.946-1.829-21.946l-3.658-598.522l2.743-2.286
				l0.915-20.117c0,0,14.633-19.204,16.003-21.946c1.371-2.741,0-9.146,0-9.146c0.001,0.001,7.315-10.058,8.229-21.947
				c0.438-5.712,9.602-3.658,10.974-9.602c1.372-5.944,0-28.35,0-28.35s-4.017,0.312-15.088-4.114
				c-6.856-2.741,14.632-8.219,14.632-49.836c0-3.2-11.432-0.457-11.432-0.457s-0.914-157.285,29.721-201.182
				c3.746-5.367,11.431,79.559,10.06,81.845s-13.616,5.251-14.174,8.688c-5.486,33.835,26.062,58.982,26.062,58.982
				s-18.289,4.113-20.574,5.941c-2.285,1.829,9.604,32.922,13.718,40.236s32.006,54.408,32.006,54.408l-3.201,731.119l-3.2,1.371
				l0.457,18.746l-4.113,1.371l1.372,6.4l-18.746,1.372l-0.915,5.486l-28.807-0.457l-2.283,85.94l64.012,13.26l155.911,0.496
				l0.457-86.873l-31.55-4.572v-7.315l-16.918-3.655l-0.914-7.773l-5.485-1.829l0.457-17.831l-2.743-1.829l-9.604-739.812
				c0,0,16.461-16.916,19.203-21.488c2.743-4.572,0.457-16.918,0.457-16.918s7.316-8.229,10.519-13.258c3.2-5.03,0-20.117,0-20.117
				s7.313-0.913,12.345-6.401c5.03-5.487,6.857-26.975,6.4-32.463c-0.457-5.487-14.176-1.83-17.375-5.943
				c24.689-31.091,22.403-60.354,22.403-60.354s-15.089-1.371-15.089-2.286c0-96.02,35.664-264.733,68.584-276.165
				c6.857,0.457,18.289,67.213,18.747,126.652c-3.201,4.113-12.346,7.771-12.346,7.771s0.915,46.182,35.207,69.955
				c6.398-1.371-33.836,10.059-35.207,11.889c-1.371,1.829,0,40.693,5.028,44.81c2.285,1.83,23.775,3.2,26.521,5.942
				c2.744,2.744,9.146,10.518,10.517,13.719c0,0,5.028,18.289,5.029,18.289l23.318,5.484l-2.286,40.693l3.201,7.771l-5.944,851.374
				l-8.687,2.286c0,0-0.915,25.146-0.915,25.147l-3.2,20.116l-17.832,4.114l0.914,5.03l-36.578,0.914L3105,2243.68l93.293,17.85
				l167.783-0.932l-0.457-114.764l-39.777-3.656l-0.459-6.4l-15.545-7.314l-0.457-10.975l-3.657-4.114l0.914-29.722l-5.028-3.657
				l-2.743-858.67l3.2-13.259l-0.457-23.774c0,0,2.162-12.187,6.857-21.033c3.34-6.295,7.625-7.233,14.841-17.425
				c1.528-2.16-1.493-15.752,2.534-21.439c7.771-10.974,9.077-27.556,11.888-28.804c29.189-12.967,30.634-54.867,23.317-58.524
				c-4.571-0.914-27.435,2.285-26.062,0.457c26.698-35.592,31.958-78.031,31.958-78.031s-13.212,0.761-20.005-0.928
				c2.315-150.029,51.852-324.572,160.354-413.031c0.002-24.765,0.141-320.431,0.141-320.431L2176.944,1518.524z M2273.302,1962.011
				v-267.479l3.657-4.113l-3.657-3.658l5.029-14.631L2273.302,1962.011z M2327.255,2014.136l-1.829-19.66l-2.743-325.089l3.2-4.572
				l-2.286-5.03l4.572-10.059l5.487-8.688L2327.255,2014.136z M2392.635,2026.482h-8.229l-2.743-14.174l-1.829-371.726l3.201-1.828
				l-0.457-6.401h-3.658l0.457-6.401l10.517-6.399l5.943-12.802l3.201,4.114L2392.635,2026.482z M2479.509,1578.401l-6.398,435.737
				l-3.201,16.917l-2.286,10.059l-5.941,0.458l-0.916-3.658l-7.314-0.457l-2.285-16.918l0.457-407.844l4.114-5.029l-2.286-9.145
				l6.86-14.175l8.688-13.261l2.286-10.06l4.112-12.348l5.944,18.288l-2.286,5.486L2479.509,1578.401z M2571.411,2038.361
				l-2.286,2.286l0.457,13.717h-20.118l-2.284-5.029l-7.771-2.284l-1.829-16.46l1.371-454.484l3.657-7.771l-1.829-7.314
				l10.974-20.118l-1.829-3.2l9.146-16.461l5.03-16.46l-0.916-5.027l-4.571-5.486l4.114-5.487l7.314,5.944l3.658,8.229
				l-0.457,12.804l2.742,1.371L2571.411,2038.361z"
   id="path203" />
   </g>
  </g>
  <g
   display="inline"
   id="_detail3_15" />
  <g
   display="inline"
   id="_detail3_16" />
  <g
   display="inline"
   id="_detail3_17" />
  <g
   display="inline"
   id="_detail3_18" />
  <g
   display="inline"
   id="_detail3_19" />
  <g
   display="inline"
   id="_detail3_20" />
 </g>
 <g
   display="none"
   images_actives:zoomable="true"
   id="detail4">
  <g
   display="inline"
   id="_detail4_54">
   <g
   id="g213">
    <g
   transform="matrix(1,0,0,1,0,0)"
   id="g215">
     <path
   fill="#FF0000"
   vector-effect="non-scaling-stroke"
   d="M1348.398,1260.193c0,0,49.438,44.142,108.59,56.502
					c28.308,5.915,62.683,10.594,273.683,11.479c266.617,1.113,291.339-10.595,314.293-17.656
					c22.954-7.063,40.611-18.54,52.088-34.433c15.009,32.666,15.009,77.689,15.892,95.349c0.885,17.658,0.885,87.399,0.885,87.399
					s-3.531,56.505-387.569,59.151c-367.265-5.297-389.335-68.862-389.335-68.862s-12.359-41.491-12.359-82.104
					S1348.398,1260.193,1348.398,1260.193"
   id="path217" />
    </g>
   </g>
  </g>
  <title
   id="title219">Les mosaïques de l'abside, registre inférieur</title>
  <desc
   id="desc221">
		Les mosaïques de l’abside sont mises en valeur grâce à l’éclairage apporté par les larges fenêtres. Dominées par la couleur verte et foisonnantes de détails, elles se divisent en deux groupes : le premier registre sous la croix et un second au-dessus. 
Sous la croix et au centre de la composition est représenté un homme auréolé et habillé en évêque avec une tunique blanche sous l’habit sacerdotal décoré d’un semi d’abeilles dorées et du pallium épiscopal. Le pallium est une écharpe blanche portant une croix à l’une de ses extrémités. De part et d’autre de sa tête est inscrit son nom en lettres dorées : il s’agit de Saint Apollinaire dans une attitude d’orant face aux spectateurs. Il tient ses bras écartés et levés, les paumes des mains tournées vers le ciel en signe de prière. Autour de lui, deux groupes de six agneaux le regardent et avancent vers lui : ce sont les fidèles séparés par des fleurs de lys dans une prairie avec des rochers et des oiseaux.
		</desc>
 </g>
 <g
   display="none"
   images_actives:zoomable="true"
   id="detail5">
  <title
   id="title224">Les mosaïques de l'abside, registre supérieur</title>
  <desc
   id="desc226">
		Au-dessus d’Apollinaire se trouve un médaillon bleu, cerclé de dessins géométriques, dans lequel est représentée une “crux gemmata”, croix couverte de pierres précieuses vertes, sur un fond bleu décoré de quatre-vingt-dix-neuf étoiles or et argent. À droite et à gauche de la croix sont dessinées les lettres Alpha et Oméga, rappelant l’universalité du christianisme. Au croisement des deux bras se trouve un portrait du Christ. Au-dessus de la croix, on peut lire “Ichtyos”, “poisson” en grec, reprenant les initiales des mots “Jésus fils de Dieu Sauveur”. Le poisson est un des symboles des premiers chrétiens. 
Trois agneaux évoluant dans une prairie verdoyante de pins, d’arbustes et d’herbe, contemplent la croix : ce sont l’apôtre Pierre et les frères Jacques le Majeur et Jean. Cette scène fait référence à un épisode de la Bible racontant que ces hommes assistent à la Transfiguration du Christ sur le mont Thabor, moment où Jésus apparait en état de gloire témoignant ainsi de sa filiation divine. 
Au-dessus du médaillon, sur un fond doré, une main symbolise Dieu et les prophètes Elie et Moïse apparaissent chacun d’un côté, identifiés eux-aussi par des inscriptions. Ils montrent ou regardent la croix.
		</desc>
  <g
   display="inline"
   id="_detail5_1" />
  <g
   display="inline"
   id="_detail5_2" />
  <g
   display="inline"
   id="_detail5_3" />
  <g
   display="inline"
   id="_detail5_4" />
  <g
   display="inline"
   id="_detail5_5" />
  <g
   display="inline"
   id="_detail5_6" />
  <g
   display="inline"
   id="_detail5_7" />
  <g
   display="inline"
   id="_detail5_8" />
  <g
   display="inline"
   id="_detail5_9" />
  <g
   display="inline"
   id="_detail5_10" />
  <g
   display="inline"
   id="_detail5_11" />
  <g
   display="inline"
   id="_detail5_12" />
  <g
   display="inline"
   id="_detail5_13" />
  <g
   display="inline"
   id="_detail5_14" />
  <g
   display="inline"
   id="_detail5_15" />
  <g
   display="inline"
   id="_detail5_16">
   <g
   id="g244">
    <g
   transform="matrix(1,0,0,1,0,0)"
   id="g246">
     <path
   fill="#FF0000"
   vector-effect="non-scaling-stroke"
   d="M1348.398,1256.663
					c102.408-237.481,355.785-226.009,389.334-226.009s269.27,9.711,357.554,241.016c-20.306,33.549-56.502,37.963-97.995,45.024
					c-123.6,11.479-266.62,7.947-266.62,7.947s-188.929,1.764-248.963-7.064c-87.401-12.358-129.778-60.032-129.778-60.032"
   id="path248" />
    </g>
   </g>
  </g>
  <g
   display="inline"
   id="_detail5_17" />
  <g
   display="inline"
   id="_detail5_18" />
  <g
   display="inline"
   id="_detail5_19" />
  <g
   display="inline"
   id="_detail5_20" />
  <g
   display="inline"
   id="_detail5_21" />
  <g
   display="inline"
   id="_detail5_22" />
  <g
   display="inline"
   id="_detail5_23" />
  <g
   display="inline"
   id="_detail5_24" />
  <g
   display="inline"
   id="_detail5_25" />
  <g
   display="inline"
   id="_detail5_26" />
  <g
   display="inline"
   id="_detail5_27" />
  <g
   display="inline"
   id="_detail5_28" />
  <g
   display="inline"
   id="_detail5_29" />
  <g
   display="inline"
   id="_detail5_30" />
 </g>
 <g
   display="none"
   images_actives:zoomable="true"
   id="detail2">
  <title
   id="title265">L'abside et l'autel</title>
  <desc
   id="desc267">
		L’abside désigne la partie qui termine le chœur d’une église. C’est un volume qui étend et élargit un bâtiment. Elle est le plus souvent arrondie et orientée vers l’est. 
L’abside de la basilique Saint-Apollinaire est accessible par un large escalier. Au milieu est placé l’autel sous lequel se trouve la tombe d’Apollinaire. Il s’agit d’une table consacrée derrière laquelle l’évêque prononce la messe et donne la communion. L’autel accueille aussi les objets liturgiques comme la Bible ou le calice dans lequel sera versé le vin. Entre les cinq fenêtres, quatre mosaïques figurent les évêques Sévère, Ecclesius, Ursus, Ursicinus, identifiables par leurs habits sacrés et leurs noms inscrits. 
Cette partie a reçu la plus grande attention des architectes. Elle est ornée d’un programme iconographique très riche, coloré sous la forme de mosaïques faisant apparaitre à la fois l’évêque martyr Apollinaire mais aussi Dieu, Jésus, les apôtres et les évangélistes.
		</desc>
  <g
   display="inline"
   id="_detail2_1" />
  <g
   display="inline"
   id="_detail2_2" />
  <g
   display="inline"
   id="_detail2_3" />
  <g
   display="inline"
   id="_detail2_4" />
  <g
   display="inline"
   id="_detail2_5">
   <g
   id="g274">
    <g
   transform="matrix(1,0,0,1,0,0)"
   id="g276">
     <path
   fill="#FF0000"
   vector-effect="non-scaling-stroke"
   d="M1283.004,1425.288h37.207c0,0-11.863-179.517,109.925-280.743
					c121.788-101.226,190.591-115.461,295.771-115.461c106.762,0,158.956-2.373,293.396,111.508
					c134.44,113.88,118.632,284.696,118.632,284.696h31.271v492.309h-886.199L1283.004,1425.288"
   id="path278" />
    </g>
   </g>
  </g>
  <g
   display="inline"
   id="_detail2_6" />
 </g>
 <g
   display="none"
   images_actives:zoomable="true"
   id="detail8">
  <title
   id="title282">Un arc en mosaïque</title>
  <desc
   id="desc284">L’abside est encadrée par un arc décoré entièrement de mosaïques. Elles ont subi des modifications entre le VIIe et le IXe siècle. Au milieu du registre supérieur apparaît, dans un médaillon doré, un portrait du Christ bénissant, sévère, le front plissé et le regard fixe. De part et d’autre du Christ se trouvent les symboles des quatre évangélistes au milieu d’un fond de nuages bleus et rouges : l’aigle de Jean, l’homme ailé de Matthieu, le lion de Marc et le taureau de Luc. En dessous, deux groupes de six agneaux, sortant de deux portes couvertes de pierres précieuses, montent vers les portes de Jérusalem et de Bethléem : ils symbolisent les douze apôtres. Enfin sur les montants de l’arc, deux palmiers-dattiers (arbre hautement symbolique dans la Bible) sur un ciel bleu foncé surmontent les portraits des archanges Michel et Gabriel.</desc>
  <g
   display="inline"
   id="_detail8_0">
   <g
   id="g287">
    <g
   transform="matrix(1,0,0,1,0,0)"
   id="g289">
     <path
   fill="#FF0000"
   vector-effect="non-scaling-stroke"
   d="M1278.945,1739.265l0.229-53.13l14.646-29.752l-14.465-11.688
					l3.341-766.31l888.823-10.445l7.439,878.76l-72.256-1.062l4.25-395.282c0,0-20.946-91.239-53.51-148.159
					c-32.562-56.92-167.016-165.939-338.868-161.373c-171.855,4.569-252.612,95.953-303.616,151.207s-68.005,147.7-68.005,147.7
					l-2.126,139.198l2.119,261.396l-65.874,2.123"
   id="path291" />
    </g>
   </g>
  </g>
 </g>
 <title
   id="title293">Une vue intérieure de la basilique Saint-Apollinaire in Classe de Ravenne</title>
 <metadata
   id="metadata7">
  <rdf:RDF>
   <cc:Work
   rdf:about="">
    <dc:format>image/svg+xml</dc:format>
    <dc:type
   rdf:resource="http://purl.org/dc/dcmitype/StillImage" />
    <dc:title>Une vue intérieure de la basilique Saint-Apollinaire in Classe de Ravenne</dc:title>
    <dc:rights>
     <cc:Agent>
      <dc:title>Texte : Audrey Anceaux. Image active : CRDP de l'académie de Versailles.
Tous droits réservés CRDP de l'académie de Versailles. Reproduction interdite sans autorisation.</dc:title>
     </cc:Agent>
    </dc:rights>
    <dc:description />
    <dc:source>Photo : © Aisa/Leemage</dc:source>
    <dc:creator>
     <cc:Agent>
      <dc:title>Bois, brique, marbre, mosaïque, 55 x 30 mètres, Italie, Classe.</dc:title>
     </cc:Agent>
    </dc:creator>
    <dc:date>VIe siècle (532-549)</dc:date>
   </cc:Work>
  </rdf:RDF>
 </metadata>
 <defs
   id="defs296">
  
  
  
 
   
   
   
  
    
   
    
   
    
   
     
     
     
     
     
    
     
     
     
     
    
     
     
     
     
     
     
     
     
     
     
    </defs>
</svg>